<?xml version="1.0" encoding="UTF-8"?>
<!DOCTYPE svg PUBLIC "-//W3C//DTD SVG 1.1//EN" "http://www.w3.org/Graphics/SVG/1.1/DTD/svg11.dtd">
<svg version="1.1" xmlns="http://www.w3.org/2000/svg" xmlns:xlink="http://www.w3.org/1999/xlink" x="0" y="0" width="327" height="494" viewBox="0, 0, 327, 494">
  <g id="Layer_1">
    <path d="M163.408,295.945 L184.748,481.345 L143.447,481.345 L142.062,481.184 L163.408,295.945" fill="#DE5090"/>
    <path d="M239.697,246.628 C239.697,246.628 254.976,275.991 265.53,313.523 C276.077,351.091 299.568,466.108 299.568,466.108 C299.568,466.108 226.802,487.216 185.705,489.593 L184.748,481.345 L163.408,295.945 L142.062,481.184 L141.105,489.593 C100.042,487.216 27.283,466.108 27.283,466.108 C27.283,466.108 50.726,351.091 61.322,313.523 C71.875,275.991 87.105,246.628 87.105,246.628 L87.267,245.362 L88.3,245.482 C88.3,245.482 116.468,252.499 162.255,252.499 C208,252.499 238.509,244.287 238.509,244.287 L239.381,244.167 L239.697,246.628" fill="#E783AB"/>
    <path d="M237.356,227.862 L239.381,244.167 L238.509,244.287 C238.509,244.287 208,252.499 162.255,252.499 C116.468,252.499 88.3,245.482 88.3,245.482 L87.267,245.362 L89.489,227.862 L89.214,225.724 L90.642,225.52 C90.642,225.52 125.869,232.544 163.408,232.544 C200.976,232.544 236.167,225.52 236.167,225.52 L237.637,225.724 L237.356,227.862" fill="#DE5090"/>
    <path d="M55.451,151.565 L46.042,164.109 L8.475,143.36 L13.193,128.081 L55.451,151.565" fill="#E783AB"/>
    <path d="M313.652,128.081 L318.335,143.36 L280.767,164.109 L271.401,151.565 L313.652,128.081" fill="#E783AB"/>
    <path d="M271.401,151.565 C271.401,151.565 256.123,151.565 250.251,141.019 L249.337,140.892 L251.447,125.74 C226.802,87.019 247.917,31.866 247.917,31.866 C247.917,31.866 259.652,21.319 264.335,24.806 C269.06,28.336 311.269,85.873 319.523,96.419 C327.736,106.973 313.652,128.081 313.652,128.081 L271.401,151.565" fill="#E783AB"/>
    <path d="M125.995,6.159 C127.542,7.228 144.318,18.935 162.255,18.935 C181.015,18.935 200.976,4.851 200.976,4.851 C200.976,4.851 196.258,64.715 163.408,64.715 C133.455,64.715 126.902,14.927 125.995,6.159" fill="#E783AB"/>
    <path d="M212.718,12.311 C212.718,12.311 231.485,85.873 202.123,94.078 C172.802,102.29 163.408,64.715 163.408,64.715 C196.258,64.715 200.976,4.851 200.976,4.851 L213.035,11.791 L212.718,12.311" fill="#DE5090"/>
    <path d="M125.995,6.159 C126.902,14.927 133.455,64.715 163.408,64.715 C163.408,64.715 154.042,102.29 124.687,94.078 C95.325,85.873 114.126,12.311 114.126,12.311 L113.81,11.791 L125.869,4.851 C125.869,4.851 125.917,5.329 125.995,6.159" fill="#DE5090"/>
    <path d="M247.917,31.866 C247.917,31.866 226.802,87.019 251.447,125.74 L249.337,140.892 L237.637,225.724 L236.167,225.52 C236.167,225.52 200.976,232.544 163.408,232.544 C125.869,232.544 90.642,225.52 90.642,225.52 L89.214,225.724 L77.507,140.892 L75.405,125.74 C100.042,87.019 78.9,31.866 78.9,31.866 L113.81,11.791 L114.126,12.311 C114.126,12.311 95.325,85.873 124.687,94.078 C154.042,102.29 163.408,64.715 163.408,64.715 C163.408,64.715 172.802,102.29 202.123,94.078 C231.485,85.873 212.718,12.311 212.718,12.311 L213.035,11.791 L247.917,31.866" fill="#E783AB"/>
    <path d="M75.405,125.74 L77.507,140.892 L76.558,141.019 C70.687,151.565 55.451,151.565 55.451,151.565 L13.193,128.081 C13.193,128.081 -0.891,106.973 7.322,96.419 C15.541,85.873 57.792,28.336 62.468,24.806 C67.193,21.319 78.9,31.866 78.9,31.866 C78.9,31.866 100.042,87.019 75.405,125.74" fill="#E783AB"/>
    <path d="M114.119,12.304 C114.119,12.304 95.346,85.852 124.687,94.064 C154.029,102.276 163.416,64.715 163.416,64.715 C130.551,64.715 125.861,4.866 125.861,4.866 M163.416,295.931 L141.112,489.579 C100.042,487.223 27.269,466.108 27.269,466.108 C27.269,466.108 50.747,351.091 61.308,313.53 C71.869,275.977 87.126,246.635 87.126,246.635 L89.475,227.854 L75.398,125.747 C100.042,87.019 78.914,31.866 78.914,31.866 L125.861,4.866 M78.914,31.866 C78.914,31.866 67.171,21.297 62.482,24.82 C57.785,28.336 15.541,85.852 7.322,96.413 C-0.898,106.973 13.193,128.095 13.193,128.095 L55.437,151.565 C55.437,151.565 70.694,151.565 76.565,141.004 M13.193,128.095 L8.496,143.36 L46.05,164.095 L55.437,151.565 M22.572,130.451 C22.628,131.083 22.826,131.147 23.163,130.633 C24.035,125.156 24.991,119.749 25.005,114.187 C25.019,111.642 25.792,103.598 22.924,101.904 C17.904,98.93 17.988,111.171 17.882,113.231 M35.875,139.05 C35.538,135.218 40.917,130.24 43.019,127.617 C47.161,122.456 52.546,117.302 54.656,110.883 M46.83,144.527 C52.033,143.592 56.456,139.261 60.914,136.708 M212.705,12.304 C212.705,12.304 231.485,85.852 202.144,94.064 C172.802,102.276 163.416,64.715 163.416,64.715 C196.272,64.715 200.976,4.866 200.976,4.866 L247.917,31.866 C247.917,31.866 226.788,87.019 251.439,125.747 L237.349,227.854 L239.697,246.635 C239.697,246.635 254.955,275.977 265.523,313.53 C276.084,351.091 299.554,466.108 299.554,466.108 C299.554,466.108 226.788,487.223 185.711,489.579 L163.416,295.931 M247.917,31.866 C247.917,31.866 259.652,21.297 264.342,24.82 C269.039,28.336 311.29,85.852 319.509,96.413 C327.722,106.973 313.638,128.095 313.638,128.095 L271.387,151.565 C271.387,151.565 256.129,151.565 250.265,141.004 M313.638,128.095 L318.328,143.36 L280.781,164.095 L271.387,151.565 M304.251,130.451 C304.202,131.083 304.005,131.147 303.661,130.633 C302.789,125.156 301.839,119.749 301.818,114.187 C301.804,111.642 301.038,103.598 303.9,101.904 C308.927,98.93 308.835,111.171 308.941,113.231 M290.948,139.05 C291.292,135.218 285.914,130.24 283.804,127.617 C279.67,122.456 274.284,117.302 272.167,110.883 M279.994,144.527 C274.797,143.592 270.375,139.261 265.91,136.708 M143.46,481.359 L185.711,481.359 M125.861,6.039 C125.861,6.039 143.46,18.956 162.241,18.956 C181.015,18.956 200.976,4.866 200.976,4.866 M90.649,225.506 C90.649,225.506 125.861,232.551 163.416,232.551 C200.976,232.551 236.182,225.506 236.182,225.506 M88.3,245.461 C88.3,245.461 116.468,252.499 162.241,252.499 C208.007,252.499 238.53,244.287 238.53,244.287" fill-opacity="0" stroke="#1A1919" stroke-width="3.571" stroke-linecap="round" stroke-linejoin="round"/>
    <path d="M168.105,105.799 C168.105,109.04 165.482,111.663 162.241,111.663 C159,111.663 156.377,109.04 156.377,105.799 C156.377,102.558 159,99.935 162.241,99.935 C165.482,99.935 168.105,102.558 168.105,105.799" fill="#DE5090"/>
    <path d="M168.105,105.799 C168.105,109.04 165.482,111.663 162.241,111.663 C159,111.663 156.377,109.04 156.377,105.799 C156.377,102.558 159,99.935 162.241,99.935 C165.482,99.935 168.105,102.558 168.105,105.799 z" fill-opacity="0" stroke="#1A1919" stroke-width="3.571" stroke-linecap="round" stroke-linejoin="round"/>
    <path d="M168.105,152.747 C168.105,155.988 165.482,158.611 162.241,158.611 C159,158.611 156.377,155.988 156.377,152.747 C156.377,149.498 159,146.875 162.241,146.875 C165.482,146.875 168.105,149.498 168.105,152.747" fill="#DE5090"/>
    <path d="M168.105,152.747 C168.105,155.988 165.482,158.611 162.241,158.611 C159,158.611 156.377,155.988 156.377,152.747 C156.377,149.498 159,146.875 162.241,146.875 C165.482,146.875 168.105,149.498 168.105,152.747 z" fill-opacity="0" stroke="#1A1919" stroke-width="3.571" stroke-linecap="round" stroke-linejoin="round"/>
    <path d="M168.105,199.694 C168.105,202.929 165.482,205.559 162.241,205.559 C159,205.559 156.377,202.929 156.377,199.694 C156.377,196.453 159,193.823 162.241,193.823 C165.482,193.823 168.105,196.453 168.105,199.694" fill="#DE5090"/>
    <path d="M168.105,199.694 C168.105,202.929 165.482,205.559 162.241,205.559 C159,205.559 156.377,202.929 156.377,199.694 C156.377,196.453 159,193.823 162.241,193.823 C165.482,193.823 168.105,196.453 168.105,199.694 z" fill-opacity="0" stroke="#1A1919" stroke-width="3.571" stroke-linecap="round" stroke-linejoin="round"/>
    <path d="M30.799,460.23 C30.799,460.23 110.604,481.359 134.074,480.185 L159.893,277.151 M296.032,460.23 C296.032,460.23 216.227,481.359 192.75,480.185 L166.938,277.151" fill-opacity="0" stroke="#1A1919" stroke-width="1.587" stroke-dasharray="2.777,2.777" stroke-linecap="round" stroke-linejoin="round"/>
  </g>
</svg>
