<?xml version="1.0" encoding="UTF-8"?>
<!DOCTYPE svg PUBLIC "-//W3C//DTD SVG 1.1//EN" "http://www.w3.org/Graphics/SVG/1.1/DTD/svg11.dtd">
<svg version="1.1" xmlns="http://www.w3.org/2000/svg" xmlns:xlink="http://www.w3.org/1999/xlink" x="0" y="0" width="914" height="1445" viewBox="0, 0, 914, 1445">
  <defs>
    <clipPath id="Clip_1">
      <path d="M0.06,0.89 L913.089,0.89 L913.089,1444.94 L0.06,1444.94 z"/>
    </clipPath>
    <clipPath id="Clip_2">
      <path d="M0.06,0.89 L913.089,0.89 L913.089,1444.94 L0.06,1444.94 z"/>
    </clipPath>
  </defs>
  <g id="Layer_1">
    <g clip-path="url(#Clip_1)">
      <path d="M803.154,454.73 C802.211,460.768 799.76,466.241 796.089,471.007 C793.877,473.878 794.533,475.078 797.217,476.98 C839.513,506.942 849.882,564.382 835.164,603.371 C822.331,637.363 796.417,656.251 761.288,661.214 C723.419,666.563 691.994,653.301 667.974,623.234 C666.965,621.971 666.333,620.36 664.112,621.87 C649.902,631.528 634.551,639.041 618.104,645.677 C636.895,664.697 641.026,689.743 647.783,713.547 C672.053,799.052 696.062,884.632 720.111,970.2 C720.88,972.938 722.204,974.711 724.733,976.141 C735.476,982.213 745.729,989.04 754.51,997.797 C760,1003.27 763.387,1009.76 763.087,1017.84 C762.963,1021.18 762.309,1024.14 759.471,1026.17 C758.397,1026.94 758.045,1027.55 758.358,1029.01 C760.818,1040.48 758.576,1043 746.736,1042.13 C746.666,1042.94 746.575,1043.74 746.528,1044.55 C746.052,1052.76 742.657,1055.59 734.535,1054.2 C723.471,1052.3 713.03,1048.53 703.127,1043.25 C701.171,1042.87 701.655,1044.38 701.555,1045.35 C701.378,1047.08 701.825,1048.84 701.23,1050.55 C700.048,1056.68 697.741,1058.88 691.674,1059.22 C683.117,1059.69 675.644,1056.67 669.36,1051.12 C655.764,1039.13 647.786,1024.08 646.024,1005.95 C645.816,1003.8 645.064,1002.2 643.822,1000.639 C642.166,999.586 641.877,997.787 641.334,996.121 C638.545,987.822 638.635,979.092 637.728,970.541 C634.401,939.179 631.122,907.812 627.873,876.442 C627.619,873.992 627.105,871.443 629.167,869.4 C632.114,869.689 632.022,872.218 632.47,874.155 C640.233,907.73 647.901,941.327 655.437,974.953 C658.184,987.213 658.065,984.78 667.613,982.614 C677.358,980.404 686.927,977.505 696.622,975.101 C703.07,973.502 703.096,973.474 701.282,967.152 C691.365,932.586 681.675,897.956 671.907,863.348 C655.581,805.509 639.246,747.672 622.958,689.822 C619.999,679.312 615.392,669.567 608.485,661.014 C607.381,659.294 606.817,657.376 606.821,655.358 C606.827,652.494 605.77,651.4 602.848,652.354 C597.496,654.102 592.005,655.367 586.575,656.864 C583.573,657.821 582.522,659.952 582.547,662.979 C582.591,668.477 582.839,673.993 582.493,679.472 C581.42,696.479 576.881,712.008 562.645,723.03 C560.274,724.866 559.542,727.165 559.55,729.991 C559.568,736.323 559.654,742.656 559.517,748.986 C559.363,756.066 555.689,759.97 548.591,760.774 C546.767,760.98 544.93,760.934 543.097,760.935 C512.437,760.938 481.777,760.938 451.118,760.934 C449.118,760.934 447.113,760.991 445.127,760.72 C438.599,759.83 434.986,756.037 434.696,749.415 C434.411,742.924 434.621,736.42 434.604,729.922 C434.596,727.12 433.981,724.721 431.593,722.9 C417.048,711.805 412.965,695.908 411.673,678.84 C411.296,673.867 411.451,668.839 411.654,663.85 C411.806,660.111 410.455,657.784 406.794,656.908 C402.016,655.066 396.862,654.523 392.06,652.718 C388.469,651.368 388.046,654.43 387.004,656.56 C368.705,687.887 347.913,717.323 321.406,742.359 C315.719,747.731 309.525,752.519 302.918,756.776 C298.445,759.657 294.283,760.049 289.358,757.555 C266.632,746.049 244.198,733.987 221.565,722.306 C220.556,721.785 219.66,720.907 218.013,721.375 C218.069,727.025 218.785,732.766 217.746,738.523 C215.219,752.538 209.35,764.732 199.122,774.762 C194.913,778.89 194.965,779.147 199.861,782.421 C222.016,797.237 244.714,811.057 268.363,823.478 C286.674,833.096 303.766,832.69 321.638,823.382 C336.906,815.429 351.291,806.185 365.076,795.93 C367.113,794.414 368.986,792.037 372.13,793.364 C374.483,798.873 372.755,810.879 369.126,814.302 C355.196,824.628 340.41,833.467 324.763,841.01 C303.74,851.144 283.5,850.496 262.601,840 C235.013,826.144 209.081,809.702 183.675,792.337 C180.516,790.177 178.568,790.387 175.488,792.332 C160.879,801.557 145.235,807.68 127.528,806.413 C119.973,805.873 112.838,803.806 106.41,799.607 C103.517,797.717 101.055,795.302 100.371,791.966 C99.732,788.851 98.015,788.607 95.463,788.446 C90.112,788.107 84.944,786.725 80.156,784.308 C73.668,781.033 71.383,775.945 73.482,769.01 C74.145,766.823 73.986,766.065 71.94,764.861 C62.771,759.466 60.357,749.4 65.987,740.405 C67.219,738.437 67.67,737.059 66.657,734.671 C63.984,728.375 66.216,722.575 69.735,717.265 C77.807,705.088 90.106,699.029 103.36,694.463 C108.063,692.843 112.912,691.727 118.195,691.059 C116.541,686.804 114.705,682.887 114.311,678.563 C113.065,664.886 123.401,652.685 137.133,654.402 C164.604,657.838 189.485,667.16 205.253,692.228 C206.325,693.931 207.436,695.408 209.345,696.398 C236.632,710.551 263.909,724.725 291.097,739.067 C294.211,740.71 296.273,740.588 299.065,738.429 C318.663,723.273 334.057,704.311 348.4,684.391 C356.764,672.775 364.429,660.696 371.814,648.435 C373.255,646.044 373.765,644.796 370.449,643.428 C302.081,615.234 260.194,563.908 240.032,493.696 C239.356,491.342 239.112,489.344 235.527,489.165 C202.025,487.49 190.481,464.447 189.673,439.405 C189.323,428.534 189.942,417.744 194.655,407.648 C195.594,405.636 195.099,403.815 194.57,401.849 C183.826,361.957 183.888,321.954 193.425,281.866 C193.539,281.389 193.826,280.954 194.033,280.499 C195.203,279.844 196.272,280.503 197.347,280.796 C201.397,281.9 204.42,280.694 206.451,276.966 C207.314,275.382 208.215,273.79 209.544,272.533 C211.077,271.082 212.399,270.9 213.115,273.327 C213.452,275.026 212.996,276.626 212.568,278.239 C208.075,295.156 205.263,312.276 204.339,329.83 C203.378,348.074 205.019,365.974 208.401,383.808 C209.453,389.353 209.867,389.512 215.388,388.195 C216.844,387.848 218.294,387.48 219.782,387.286 C227.281,386.306 227.339,386.313 228.347,379.01 C229.029,374.066 229.847,369.147 230.671,364.232 C234.102,345.052 238.631,326.137 244.871,307.664 C256.663,272.753 274.002,240.935 298.393,213.187 C305.084,205.574 312.459,198.562 319.921,191.672 C326.512,187.217 334.14,185.394 341.583,183.075 C348.404,180.949 355.269,178.986 362.23,177.397 C364.006,176.992 366.15,175.784 367.5,178.33 C367.298,180.949 365.082,181.775 363.286,182.834 C348.284,191.68 334.715,202.501 322.509,214.755 C302.154,235.191 286.107,258.751 274.065,285.071 C259.518,316.866 250.942,350.286 246.965,384.846 C245.724,395.625 244.974,406.574 246.047,417.654 C247.068,428.209 247.483,438.859 248.641,449.432 C251.82,472.304 257.39,494.549 266.037,515.988 C277.658,544.692 294.726,569.675 317.625,590.523 C337.206,608.351 359.864,621.177 384.621,630.38 C407.544,638.902 431.282,643.61 455.555,646.362 C476.16,648.698 496.823,648.889 517.384,647.92 C558.125,645.999 597.726,638.27 634.358,619.29 C670.067,600.788 697.8,573.988 717.14,538.572 C720.821,531.831 723.861,524.823 727.143,517.91 C736.567,495.232 742.44,471.624 745.568,447.311 C745.927,444.526 746.916,441.812 746.596,438.94 C747.53,428.515 747.271,418.056 747.644,407.62 C748.395,386.65 744.635,366.317 740.165,346.013 C738.309,337.58 735.444,329.41 733.866,320.913 C733.846,319.904 733.801,318.718 734.55,318.075 C738.709,314.502 743.759,316.429 748.417,316.108 C751.464,315.898 752.558,318.504 753.322,320.961 C756.738,331.947 759.322,343.15 761.56,354.42 C763.278,363.072 764.712,371.784 765.754,380.557 C766.473,386.609 766.778,386.717 772.815,387.109 C778.893,387.505 784.651,388.941 789.58,392.786 C791.658,394.901 792.36,397.654 792.974,400.406 C793.822,404.203 795.472,407.194 799.543,408.36 C802.402,409.179 803.6,411.486 804.357,414.197 C807.525,425.545 808.271,436.994 806.306,448.646 C805.888,451.127 804.095,452.653 803.154,454.73" fill="#6E4100"/>
      <path d="M212.299,272.839 C209.079,272.462 208.942,275.496 207.908,277.174 C204.109,283.342 200.326,284.373 194.033,280.499 C190.993,277.038 191.947,272.911 192.383,269.025 C194.992,245.788 200.316,223.16 208.075,201.109 C222.689,159.572 244.528,122.408 275.569,90.979 C314.245,51.819 361.2,27.217 414.173,13.8 C461.211,1.885 509.065,-1.776 557.349,2.79 C601.439,6.96 643.375,19.642 683.71,37.664 C735.769,60.924 783.171,91.384 824.97,130.289 C840.729,144.957 855.29,160.727 866.459,179.317 C871.251,187.294 869.402,192.147 860.49,194.466 C842.5,199.146 824.268,201.536 805.644,199.764 C804.871,199.69 804.084,199.754 802.749,199.754 C808.047,212.65 812.285,225.36 815.364,238.453 C823.419,272.702 824.726,307.289 820.427,342.105 C819.908,346.303 821.091,347.792 824.66,349.334 C852.272,361.262 875.843,378.424 892.645,403.78 C906.091,424.072 913.735,446.275 913.046,470.95 C912.901,476.112 912.857,481.288 913.074,486.445 C913.274,491.196 910.842,493.751 906.578,494.403 C874.125,499.365 844.272,494.174 819.056,471.475 C813.958,466.885 809.769,461.496 805.871,455.868 C805.295,455.035 804.954,452.927 803.154,454.731 C807.453,441.23 806.548,427.746 803.019,414.274 C802.47,412.179 802.021,409.779 799.322,409.591 C794.584,409.262 792.985,406.17 791.966,402.185 C791.235,399.33 790.997,396.264 789.05,393.818 C783.738,378.231 778.75,362.536 771.927,347.495 C758.5,317.892 741.694,290.486 720.292,265.917 C699.306,241.826 675.018,221.856 647.237,206.101 C644.766,204.699 642.191,203.542 639.623,202.349 C633.926,198.201 627.245,196.098 620.873,193.343 C593.513,181.521 564.899,174.478 535.374,171.045 C519.389,169.187 503.332,168.153 487.231,167.961 C484.558,167.929 481.92,168.079 479.355,168.889 C473.712,167.994 468.039,166.629 462.603,169.797 C459.694,168.409 456.658,167.787 453.422,168.005 C425.547,169.881 397.668,171.708 370.455,178.707 C369.327,178.997 368.202,179.397 367.125,178.568 C362.899,177.44 359.138,179.499 355.343,180.586 C343.583,183.954 331.48,186.399 320.654,192.506 C301.801,200.928 283.001,209.441 265.866,221.163 C253.331,229.738 241.271,238.869 230.891,250.043 C224.306,256.359 218.187,263.042 214.122,271.345 C213.748,272.11 213.217,272.719 212.299,272.839" fill="#6B421E"/>
      <path d="M369.126,814.302 C371.273,807.463 372.804,800.57 370.962,793.381 C371.563,783.172 371.003,772.686 377.128,763.667 C382.082,756.371 381.093,747.9 381.34,739.978 C381.977,719.567 383.264,699.184 383.821,678.768 C384.022,671.418 383.466,663.781 386.056,656.584 C387.848,649.894 387.823,649.975 394.308,652.021 C398.184,653.244 402.155,654.166 406.083,655.224 C403.42,663.62 404.124,672.394 403.791,680.949 C402.797,706.55 401.511,732.139 400.539,757.741 C400.416,760.97 399.722,764.147 397.947,766.776 C393.209,773.795 391.601,781.62 390.863,789.875 C388.344,818.062 385.339,846.203 382.547,874.364 C380.133,898.718 377.683,923.069 375.154,947.412 C372.557,972.417 370.162,997.442 367.616,1022.45 C365.103,1047.13 362.775,1071.83 360.138,1096.49 C359.253,1104.77 358.534,1113.06 357.603,1121.34 C357.142,1125.44 358.678,1127.78 362.677,1129.2 C389.491,1138.75 417.092,1144.74 445.339,1147.94 C466.21,1150.31 487.149,1151.54 508.141,1150.84 C549.961,1149.46 591.079,1143.84 630.643,1129.43 C636.794,1127.19 637.279,1126.63 636.411,1118.81 C634.245,1099.28 632.356,1079.72 630.268,1060.19 C627.312,1032.54 624.468,1004.88 621.566,977.234 C618.003,943.29 614.418,909.349 610.898,875.402 C607.738,844.934 604.429,814.482 601.479,783.993 C601.07,779.77 599.983,775.795 597.76,772.187 C593.704,765.6 592.617,758.515 592.388,750.777 C591.545,722.328 590.63,693.884 590.524,665.421 C590.51,661.63 589.552,658.197 587.077,655.26 C593.092,653.617 599.14,652.084 605.106,650.279 C607.437,649.573 608.212,650.198 608.058,652.444 C607.874,655.116 608.211,657.716 609.029,660.26 C610.448,662.463 610.665,664.931 610.597,667.455 C609.983,690.237 612.122,712.974 611.688,735.76 C611.565,742.218 612.817,748.664 612.782,755.16 C612.773,757.008 613.313,758.861 614.316,760.381 C620.944,770.428 621.302,781.997 622.568,793.377 C625.194,816.994 626.769,840.728 630.452,864.228 C630.727,865.983 631.397,867.847 629.876,869.431 C627.537,875.183 630.295,880.824 630.439,886.517 C630.639,894.389 632.171,902.222 633.049,910.081 C634.368,921.874 635.674,933.669 636.876,945.475 C638.012,956.635 638.909,967.821 640.104,978.975 C640.732,984.837 640.658,990.846 643.048,996.422 C642.082,998.436 642.739,1000.512 642.811,1002.57 C646.094,1034.27 649.375,1065.98 652.659,1097.69 C653.787,1108.59 654.849,1119.5 656.082,1130.39 C656.711,1135.93 654.714,1139.44 649.426,1141.67 C641.938,1144.83 634.397,1147.83 626.638,1150.19 C623.719,1151.08 622.425,1152.38 622.832,1155.35 C620.837,1154.03 618.856,1153.7 616.452,1154.55 C613.021,1155.78 609.451,1156.62 605.943,1157.69 C578.953,1164.61 551.549,1168.5 523.732,1170.09 C512.924,1170.71 502.144,1170.95 491.352,1170.85 C459.328,1170.58 427.683,1166.86 396.457,1159.74 C393.204,1159 390.278,1158.43 387.948,1161.49 C385.275,1156.13 379.953,1155.27 374.956,1153.86 C373.613,1153.48 372.832,1152.4 371.937,1151.46 C362.466,1148.9 353.385,1145.27 344.38,1141.42 C339.607,1139.38 337.627,1135.95 338.161,1130.77 C341.33,1099.99 344.428,1069.21 347.539,1038.42 C350.399,1010.12 353.246,981.819 356.096,953.517 C359.28,921.902 362.454,890.287 365.646,858.673 C367.033,844.938 368.465,831.208 369.839,817.472 C369.947,816.386 370.382,815.125 369.126,814.302" fill="#6B421E"/>
      <path d="M371.937,1151.46 C375.267,1152.47 378.538,1153.87 381.943,1154.39 C386.383,1155.07 387.647,1157.5 387.144,1161.5 C388.387,1162.62 388.614,1164.17 388.491,1165.64 C388.122,1170.04 390.418,1171.8 394.407,1172.73 C416.026,1177.76 437.9,1181.05 460.005,1182.98 C475.937,1184.38 491.884,1185.4 507.873,1184.87 C538.767,1183.87 569.287,1180.19 599.013,1171.29 C605.146,1169.45 605.387,1169.09 605.582,1162.58 C605.646,1160.42 605.462,1158.21 607.058,1156.42 C611.268,1155.08 615.524,1153.87 619.673,1152.36 C623.054,1151.13 621.438,1154.73 622.832,1155.35 C623.188,1161.65 623.505,1167.96 623.912,1174.26 C624.224,1179.09 622.117,1182.03 617.526,1183.65 C603.395,1188.66 588.989,1192.66 574.253,1195.33 C570.03,1196.09 568.344,1197.42 567.983,1202.08 C564.635,1245.38 560.941,1288.65 557.368,1331.94 C556.547,1341.89 555.882,1351.85 554.97,1361.8 C554.734,1364.37 555.432,1366.1 557.314,1367.88 C565.196,1375.33 572.512,1383.28 578.376,1392.48 C581.522,1397.41 584.129,1402.55 585.543,1408.27 C589.27,1423.36 580.462,1439.65 565.438,1443.51 C557.442,1445.56 548.857,1445.53 540.813,1442.83 C522.852,1436.8 507.504,1427.12 497.647,1409.9 C486.842,1427.96 471,1439.37 451.309,1443.29 C433.161,1446.91 422.804,1445.81 412.673,1429.72 C406.652,1420.16 407.918,1410.28 412.361,1400.63 C418.239,1387.86 427.623,1377.69 437.645,1368.11 C439.645,1366.2 440.49,1364.47 440.252,1361.69 C437.583,1330.53 435.017,1299.35 432.452,1268.17 C430.638,1246.12 428.802,1224.07 427.145,1202 C426.874,1198.4 426.195,1196.61 421.957,1195.98 C407.33,1193.81 392.826,1190.85 378.567,1186.85 C371.591,1184.89 370.055,1182.46 370.56,1175.38 C371.127,1167.41 371.487,1159.43 371.937,1151.46" fill="#6E4100"/>
    </g>
    <path d="M107.529,471.825 C104.34,471.82 101.74,470.581 99.66,468.167 C86.643,453.057 73.627,437.947 60.583,422.861 C58.027,419.904 56.836,416.688 57.929,412.776 C58.971,409.047 61.472,406.716 65.058,405.815 C69.321,404.744 72.847,406.337 75.693,409.641 C87.19,422.99 98.715,436.315 110.227,449.65 C112.073,451.789 114.097,453.805 115.702,456.112 C118.08,459.533 118.153,463.286 116.176,466.95 C114.344,470.343 111.298,471.782 107.529,471.825" fill="#EF6F63"/>
    <g clip-path="url(#Clip_2)">
      <path d="M78.83,514.798 C78.946,521.167 72.375,525.891 65.223,523.622 C50.173,518.848 35.19,513.859 20.182,508.952 C17.021,507.918 13.8,507.027 10.727,505.775 C5.338,503.579 2.933,498.298 4.772,493.212 C6.673,487.957 11.726,485.215 17.231,486.975 C35.443,492.797 53.614,498.748 71.758,504.782 C76.108,506.228 78.425,509.575 78.83,514.798" fill="#EF6F63"/>
      <path d="M27.649,585.855 C21.666,585.855 15.68,585.963 9.701,585.825 C3.667,585.685 0.027,581.94 -0,576.166 C-0.027,570.409 3.544,566.407 9.475,566.187 C26.238,565.565 43.007,565.061 59.778,564.673 C66.275,564.522 71.081,569.111 70.962,574.861 C70.843,580.621 66.598,584.532 60.031,584.593 C49.237,584.693 38.441,584.62 27.645,584.62 C27.646,585.032 27.648,585.443 27.649,585.855" fill="#EF6F63"/>
    </g>
    <path d="M701.23,1050.55 C701.242,1048.31 701.164,1046.06 701.301,1043.82 C701.384,1042.47 702.131,1042.22 703.127,1043.25 C700.982,1045.29 703.084,1048.43 701.23,1050.55" fill="#B29C83"/>
    <path d="M642.811,1002.57 C641.731,1000.473 641.182,998.401 643.048,996.422 C643.306,997.827 643.564,999.233 643.822,1000.639 C643.485,1001.28 643.148,1001.92 642.811,1002.57" fill="#BFAF9B"/>
    <path d="M367.125,178.568 C376.329,174.427 386.319,173.695 396.077,172.089 C416.561,168.717 437.225,167.129 457.97,166.471 C460.589,166.388 462.379,166.873 463.04,169.594 C464.59,170.925 464.525,172.891 464.917,174.63 C470.726,200.409 478.927,225.377 490.806,249.014 C501.425,270.146 514.569,289.513 532.326,305.435 C538.804,311.244 545.872,316.228 553.633,320.17 C558.321,322.551 561.609,321.685 564.899,317.389 C565.82,316.185 566.591,314.894 568.256,314.613 C579.364,315.326 590.318,317.314 601.399,318.306 C625.959,320.504 650.426,321.202 674.75,316.143 C675.727,315.939 676.725,315.885 677.704,315.749 C678.705,315.634 679.725,315.727 680.59,316.214 C684.253,318.279 687.518,317.757 690.534,314.915 C691.259,314.231 692.18,313.82 693.211,313.719 C705.46,315.437 717.75,316.671 730.113,317.101 C732.43,317.182 734.339,317.817 734.934,320.396 C743.747,350.698 750.54,381.318 749.522,413.165 C749.24,421.978 748.98,430.795 747.867,439.557 C747.114,440.391 748.214,442.199 746.595,442.433 C745.255,442.627 744.664,441.289 744.102,440.322 C741.243,435.409 737.968,430.824 733.966,426.765 C717.487,410.046 695.762,406.041 675.077,417.1 C652.416,429.216 640.121,448.798 639.596,474.424 C639.167,495.386 651.058,509.577 669.112,518.808 C678.275,523.493 688.374,525.498 698.535,525.854 C706.863,526.146 715.049,524.163 722.577,520.193 C724.286,519.291 725.79,517.66 728.047,518.476 C718.767,542.173 705.015,563.015 687.507,581.382 C654.804,615.687 613.803,634.358 568.046,643.198 C516.244,653.207 464.41,652.68 412.961,640.427 C374.566,631.284 340.052,614.467 311.542,586.628 C291.039,566.608 275.4,543.281 265.092,516.468 C267.096,515.16 268.565,516.708 270.121,517.482 C281.044,522.912 292.689,526.036 304.783,525.855 C318.525,525.649 330.245,519.937 339.581,509.653 C344.752,503.958 349.544,497.989 352.866,490.997 C358.009,480.169 359.023,469.128 355.299,457.521 C350.604,442.89 343.757,429.571 331.051,420.56 C310.237,405.799 286.65,408.43 267.135,424.959 C260.364,430.694 254.761,437.533 250.918,445.68 C250.187,447.231 249.699,449.27 247.36,449.387 C237.405,367.518 257.083,293.717 308.108,228.726 C322.608,210.259 340.708,195.519 360.5,182.902 C362.725,181.484 364.917,180.014 367.125,178.568" fill="#FEF8EA"/>
    <path d="M587.077,655.26 C590.256,654.704 591.298,655.943 591.535,659.244 C592.395,671.219 591.959,683.208 592.341,695.185 C593.021,716.473 593.522,737.766 594.043,759.059 C594.094,761.149 594.644,763.033 595.737,764.717 C601.034,772.874 603.107,781.877 603.984,791.502 C606.46,818.662 609.363,845.783 612.199,872.908 C615.018,899.865 618.017,926.802 620.831,953.759 C623.68,981.051 626.347,1008.36 629.192,1035.65 C632.002,1062.61 634.939,1089.56 637.811,1116.51 C638.128,1119.49 638.22,1122.5 638.704,1125.44 C639.197,1128.45 636.845,1128.67 635.144,1129.34 C621.032,1134.87 606.51,1139.09 591.721,1142.37 C554.642,1150.6 517.076,1153.81 479.177,1152.2 C439.115,1150.49 399.806,1144.31 361.906,1130.55 C357.157,1128.82 355.268,1126.98 355.915,1121.44 C358.828,1096.51 361.184,1071.5 363.695,1046.52 C365.857,1025.01 367.926,1003.48 370.093,981.972 C372.593,957.156 375.18,932.35 377.685,907.534 C379.841,886.188 381.942,864.836 384.056,843.486 C386.138,822.465 388.203,801.443 390.286,780.423 C390.711,776.136 392.958,772.565 395.099,769.024 C397.937,764.326 399.004,759.398 399.199,753.877 C400.317,722.122 401.776,690.378 403.066,658.628 C403.153,656.499 403.54,655.001 406.083,655.224 C413.275,657.415 413.279,657.415 413.033,665.141 C412.601,678.701 413.473,692.063 419.018,704.72 C422.158,711.887 426.654,718.004 433.301,722.247 C435.569,723.695 436.347,725.31 436.271,727.926 C436.068,734.91 436.107,741.902 436.094,748.89 C436.082,755.708 438.932,759.056 445.534,759.075 C479.982,759.177 514.43,759.184 548.877,759.066 C555.322,759.044 558.026,755.823 558.068,749.274 C558.087,746.279 558.289,743.264 558.031,740.291 C557.226,731.006 558.457,723.584 566.888,716.76 C577.594,708.094 579.733,694.29 580.939,681.028 C581.465,675.247 581.651,669.336 581.049,663.582 C580.513,658.46 581.918,655.765 587.077,655.26" fill="#AAD874"/>
    <path d="M386.056,656.584 C386.265,674.013 384.832,691.384 384.218,708.783 C383.674,724.193 382.849,739.593 382.322,755.002 C382.229,757.716 381.037,759.866 379.698,761.842 C374.852,768.994 373.348,776.981 373,785.382 C372.885,788.143 372.986,791.061 370.961,793.381 C357.668,802.77 344.675,812.627 330.239,820.273 C319.953,825.721 309.519,830.808 297.804,832.572 C289.628,833.802 282.378,830.8 275.213,827.74 C250.951,817.377 228.946,803.025 206.929,788.713 C203.305,786.357 199.872,783.682 196.13,781.541 C193.109,779.813 193.556,778.681 195.776,776.555 C207.293,765.522 214.895,752.41 216.686,736.272 C217.334,730.438 216.747,724.677 215.878,718.986 C217.689,718.1 218.64,719.373 219.674,719.911 C242.218,731.626 264.838,743.202 287.184,755.283 C293.58,758.741 298.566,758.622 304.494,754.374 C324.366,740.132 340.175,722.032 354.885,702.8 C366.195,688.012 375.9,672.147 386.056,656.584" fill="#FEFEFE"/>
    <path d="M629.876,869.431 C625.077,844.929 624.128,819.969 621.083,795.259 C620.229,788.333 619.708,781.368 618.922,774.433 C618.419,769.997 615.732,766.42 613.59,762.741 C611.487,759.13 610.708,755.402 610.613,751.398 C609.927,722.159 609.253,692.92 608.607,663.681 C608.582,662.544 608.881,661.401 609.029,660.26 C616.997,668.279 621.094,678.427 624.088,688.965 C644.147,759.562 664.043,830.206 683.982,900.838 C690.524,924.013 696.968,947.216 703.644,970.352 C704.62,973.735 704.06,974.787 700.555,975.621 C687.307,978.771 674.115,982.182 660.999,985.842 C657.476,986.825 656.52,986.128 655.741,982.65 C647.64,946.496 639.353,910.384 631.109,874.263 C630.739,872.643 630.289,871.041 629.876,869.431" fill="#FEFEFE"/>
    <path d="M740.086,646.232 C716.223,643.45 696.359,633.322 681.354,614.264 C679.988,612.529 678.66,611.309 681.355,609.087 C718.177,578.726 740.865,539.373 753.844,493.994 C754.857,490.452 756.18,489.215 759.862,489.224 C764.993,489.238 770.084,488.22 775.01,486.628 C786.702,496.338 793.416,509.157 797.847,523.368 C801.185,534.075 803.211,545.198 803.092,556.269 C802.734,589.429 792.34,618.035 763.053,637.031 C756.015,641.596 748.374,644.745 740.086,646.232" fill="#D7AA61"/>
    <path d="M247.36,449.387 C252.053,439.948 257.741,431.233 265.814,424.286 C276.91,414.737 289.671,408.822 304.423,409.708 C324.625,410.921 339.088,421.777 348.876,439.107 C353.804,447.832 357.463,457.113 358.728,467.116 C359.914,476.483 357.719,485.401 353.03,493.418 C344.029,508.808 332.943,522.04 314.239,525.909 C297.873,529.295 282.766,525.015 268.202,517.892 C267.174,517.389 266.352,516.466 265.092,516.469 C257.164,498.796 252.543,480.163 249.108,461.194 C248.4,457.281 247.936,453.324 247.36,449.387" fill="#FFD5BA"/>
    <path d="M728.047,518.476 C720.051,524.037 710.938,526.796 701.446,527.182 C692,527.566 682.632,525.611 673.75,522.201 C654.697,514.888 642.232,501.702 638.533,481.221 C636.809,471.672 638.521,462.332 642.007,453.415 C649.693,433.751 662.549,419.304 683.12,412.237 C703.299,405.304 726.154,413.347 738.918,430.273 C741.311,433.447 743.712,436.615 745.466,440.239 C747.217,443.858 746.866,439.128 747.867,439.556 C744.982,466.797 739.264,493.327 728.047,518.476" fill="#FFD5BA"/>
    <path d="M118.069,787.747 C122.721,784.103 127.669,782.689 132.42,780.901 C137.661,778.929 140.129,775.168 138.918,770.771 C137.643,766.141 133.153,763.913 127.637,765.584 C122.555,767.124 117.603,769.092 112.588,770.854 C106.514,772.988 100.329,773.232 92.585,771.85 C100.556,767.009 108.005,764.316 115.804,762.431 C117.093,762.119 118.444,761.984 119.677,761.526 C123.678,760.042 125.489,756.904 124.78,752.884 C124.088,748.961 121.642,746.299 117.227,746.294 C110.479,746.286 104.228,748.943 97.67,749.989 C92.901,750.75 88.171,751.752 83.307,751.433 C81.885,751.34 79.869,751.79 79.444,750.032 C79.055,748.423 80.832,747.451 82.055,746.725 C84.184,745.461 86.404,743.852 88.743,743.527 C98.204,742.213 106.96,738.32 116.25,736.421 C121.127,735.424 123.773,731.182 122.732,726.825 C121.664,722.353 117.685,719.743 112.801,720.728 C104.328,722.436 95.806,723.972 87.558,726.647 C86.153,727.102 84.828,727.956 82.949,727.171 C84.643,723.006 87.808,720.198 91.391,717.898 C109.437,706.312 129,703.526 149.748,708.204 C156.258,709.672 160.501,707.753 161.439,702.493 C162.175,698.367 160.516,695.405 156.829,693.459 C152.337,691.088 147.446,690.099 142.511,689.397 C136.098,688.484 132.459,684.622 130.685,678.733 C129.233,673.913 131.841,669.86 136.792,670.425 C153.997,672.387 169.938,678.337 182.848,689.926 C194.281,700.191 200.087,713.99 200.835,729.357 C201.559,744.214 194.375,755.961 183.905,765.726 C171.319,777.463 157.14,786.543 139.877,789.861 C132.69,791.243 125.644,790.869 118.069,787.747" fill="#FEF8EA"/>
    <path d="M734.934,320.396 C733.797,317.888 731.56,318.236 729.413,318.206 C716.953,318.033 704.546,317.266 692.319,314.649 C691.603,309.251 688.948,304.995 685.519,300.744 C663.415,273.339 648.651,242.255 640.158,208.15 C639.62,205.991 638.299,203.735 639.957,201.459 C650.745,205.595 660.222,212.071 669.545,218.652 C729.707,261.117 767.055,319.607 788.637,389.063 C789.096,390.539 790.047,392.141 789.05,393.817 C783.178,389.896 776.649,388.231 769.667,388.553 C766.553,388.696 765.153,388.241 764.72,384.501 C762.256,363.201 758.058,342.225 752.127,321.595 C751.14,318.162 749.952,316.447 746.032,317.32 C743.481,317.887 740.73,317.622 738.07,317.611 C736.111,317.603 734.828,318.169 734.934,320.396" fill="#D7AA61"/>
    <path d="M230.125,249.227 C247.209,230.924 267.662,217.201 289.654,205.609 C298.172,201.12 306.87,196.987 315.879,193.546 C317.423,192.956 318.897,192.098 320.654,192.506 C295.499,215.38 275.374,242.015 260.616,272.679 C247.343,300.257 238.458,329.223 233.054,359.302 C232.791,360.767 232.335,362.197 231.968,363.644 C229.697,363.131 229.488,361.093 229.093,359.409 C223.604,335.985 221.279,312.301 223.23,288.252 C224.036,278.315 225.117,268.427 227.003,258.63 C227.635,255.344 228.505,252.17 230.125,249.227" fill="#D7AA61"/>
    <path d="M740.086,646.232 C740.635,645.355 741.368,644.829 742.406,644.51 C775.41,634.353 793.805,611.185 799.691,578.042 C804.619,550.29 800.695,523.658 785.006,499.554 C782.044,495.004 778.362,490.924 775.011,486.627 C778.864,484.065 781.869,485.792 785.276,488.053 C826.244,515.248 834.129,572.146 817.056,604.81 C801.699,634.191 775.99,646.535 743.578,646.426 C742.414,646.422 741.25,646.3 740.086,646.232" fill="#FEFEFE"/>
    <path d="M230.125,249.227 C227.597,264.122 224.986,279.007 224.392,294.148 C223.493,317.038 225.696,339.621 231.157,361.875 C231.309,362.494 231.693,363.055 231.968,363.643 C231.014,371.389 230.001,379.128 229.15,386.885 C228.954,388.668 227.955,388.556 226.764,388.506 C221.379,388.282 216.131,388.957 211.177,391.16 C208.349,392.418 208.274,390.532 207.844,388.64 C202.489,365.084 201.134,341.306 203.562,317.274 C205.087,302.178 208.536,287.483 212.299,272.839 C215.783,263.112 223.054,256.246 230.125,249.227" fill="#FEFEFE"/>
    <path d="M745.61,1011.59 C739.069,1013.19 732.885,1013.48 731.776,1020.84 C731.739,1021.08 730.655,1021.23 730.044,1021.31 C721.313,1022.46 719.365,1024.94 721.037,1033.99 C709.955,1028.54 698.58,1024.79 693.614,1012.29 C692.042,1008.33 688.428,1006.77 684.109,1008.02 C680.004,1009.2 677.561,1013.07 678.68,1017.28 C680.467,1024.01 682.651,1030.64 684.633,1037.32 C685.004,1038.57 685.783,1040.17 684.686,1041.08 C683.462,1042.09 682.157,1040.76 681.195,1039.98 C670.227,1031.1 664.096,1019.49 661.948,1005.64 C661.534,1002.97 662.528,1001.9 665.195,1001.24 C680.658,997.401 696.065,993.331 711.498,989.367 C712.737,989.048 713.944,988.416 715.327,989.214 C725.977,995.359 736.226,1002.03 745.61,1011.59" fill="#FEF8EA"/>
    <path d="M565.218,672.189 C565.424,678.54 564.641,684.781 563.09,690.928 C558.84,707.769 549.318,714.429 532.126,712.364 C525.345,711.55 518.888,709.388 512.503,706.976 C509.979,706.023 510.05,705.134 511.438,703.146 C520.081,690.761 528.623,678.306 537.177,665.859 C538.186,664.392 539.431,663.712 541.263,663.491 C548.179,662.659 555.083,661.7 561.964,660.61 C564.283,660.242 565.355,660.674 565.252,663.217 C565.13,666.203 565.223,669.199 565.218,672.189" fill="#FEFEFE"/>
    <path d="M428.938,672.771 C428.844,660.129 428.841,660.144 439.113,661.913 C441.73,662.364 444.42,663.202 446.992,662.959 C454.187,662.279 457.504,666.633 460.794,671.998 C467.216,682.47 474.044,692.695 480.831,702.938 C482.579,705.576 482.885,706.894 479.229,708.035 C471.113,710.569 463.062,713.014 454.405,712.646 C445.463,712.265 438.951,708.235 434.797,700.318 C429.936,691.054 429.135,680.992 428.938,672.771" fill="#FEFEFE"/>
    <path d="M497.13,742.94 C483.494,742.939 469.856,742.868 456.221,742.996 C453.285,743.024 452.187,742.347 452.164,739.144 C452.094,729.115 451.949,729.182 461.907,728.45 C471.614,727.736 480.773,724.78 489.682,721.076 C494.685,718.997 499.371,718.808 504.484,720.969 C515.396,725.581 526.652,729.073 538.716,728.58 C541.303,728.474 542.068,729.241 542.148,731.892 C542.482,742.943 542.583,742.94 531.555,742.94 C520.08,742.94 508.605,742.94 497.13,742.94" fill="#FEFDFD"/>
    <path d="M789.51,438.156 C789.327,443.3 788.74,449.393 786.477,455.226 C782.301,465.992 773.066,472.568 761.62,473.005 C759.691,473.079 758.953,472.91 759.408,470.686 C763.663,449.91 765.535,428.889 765.533,407.698 C765.533,405.217 766.669,404.652 768.83,404.474 C776.635,403.831 782.759,407.369 786.082,414.62 C788.583,420.078 789.612,426.819 789.51,438.156" fill="#FEF8EA"/>
    <path d="M224.923,404.501 C227.582,403.987 228.3,405.374 228.327,408.137 C228.527,428.599 230.203,448.942 234.246,469.022 C235.027,472.898 233.85,473.173 230.613,472.638 C220.495,470.967 212.856,465.915 209.181,456.208 C204.19,443.028 204.238,429.505 208.515,416.167 C211.046,408.274 216.958,404.418 224.923,404.501" fill="#FEF8EA"/>
    <path d="M496.116,697.103 C489.182,686.405 482.699,676.404 475.674,665.566 C489.88,665.963 503.358,666.25 517.919,665.41 C510.505,676.187 503.54,686.311 496.116,697.103" fill="#FEF7E9"/>
    <path d="M799.553,370.025 C793.985,354.716 788.283,340.729 781.546,327.18 C750.766,265.274 706.339,216.452 644.244,184.867 C612.845,168.895 579.394,159.25 544.486,154.452 C513.021,150.128 481.395,149.526 449.778,150.777 C392.548,153.04 337.141,163.726 285.442,189.586 C260.243,202.191 237.405,218.185 217.742,238.503 C216.492,239.794 215.514,241.349 213.848,242.378 C215.362,231.136 218.496,220.597 222.006,210.155 C236.355,167.465 258.797,129.745 291.182,98.234 C324.622,65.697 364.529,44.441 409.15,31.769 C453.619,19.141 499.137,15.149 545.1,17.837 C587.496,20.317 627.992,31.601 667.066,48.009 C719.247,69.921 766.671,99.464 808.841,137.259 C822.374,149.389 834.959,162.479 845.844,177.116 C847.948,179.945 848.391,181.044 843.992,181.803 C826.086,184.89 808.283,185.502 790.491,181.273 C786.857,180.409 783.876,181.39 781.677,184.361 C779.58,187.193 779.634,190.183 781.324,193.268 C797.829,223.397 804.426,256.056 806.376,289.997 C807.827,315.256 805.2,340.151 800.88,364.951 C800.653,366.254 800.216,367.52 799.553,370.025" fill="#AAD874"/>
    <path d="M678.98,316.537 C659.771,321.653 640.143,321.982 620.505,321.119 C602.569,320.33 584.696,318.521 566.979,315.452 C564.069,310.062 558.895,307.609 553.873,304.631 C539.602,296.171 528.919,283.894 519.52,270.456 C499.209,241.414 486.813,208.99 478.927,174.677 C478.463,172.655 477.441,170.523 478.75,168.398 C479.053,166.322 480.613,166.409 482.139,166.418 C528.993,166.698 574.866,172.482 618.511,190.744 C619.733,191.256 620.89,191.926 622.077,192.522 C623.845,194.515 623.994,197.076 624.475,199.502 C632.613,240.548 649.334,277.611 675.666,310.259 C677.12,312.061 679.636,313.53 678.98,316.537" fill="#D7AA61"/>
    <path d="M898.045,474.125 C899.456,478.496 896.922,479.662 891.784,479.934 C853.273,481.971 823.623,464.287 810.079,429.084 C809.543,427.69 809.009,426.287 808.597,424.853 C806.53,417.667 803.718,411.334 807.679,402.951 C812.943,391.812 814.49,379.078 816.821,366.843 C817.276,364.455 817.793,363.601 820.176,364.722 C855.854,381.511 883.176,405.949 894.034,445.432 C896.512,454.442 897.464,463.688 898.045,474.125" fill="#AAD874"/>
    <path d="M478.75,168.398 C485.859,201.427 496.934,232.927 515.095,261.631 C524.296,276.171 534.944,289.49 548.908,299.862 C552.259,302.351 555.709,304.705 559.521,306.338 C563.705,308.131 566.39,310.858 566.979,315.451 C563.877,323.335 559.881,324.806 552.288,320.827 C533.379,310.916 519.112,295.951 507.119,278.693 C484.676,246.397 471.293,210.308 463.181,172.078 C463.011,171.277 463.082,170.424 463.041,169.594 C463.203,168.663 462.971,167.556 463.943,166.949 C466.025,165.648 476.651,166.719 478.75,168.398" fill="#6E4100"/>
    <path d="M678.98,316.537 C657.905,291.201 641.772,263.099 631.537,231.705 C627.36,218.894 623.883,205.908 622.077,192.522 C628.137,195.301 634.845,196.784 639.957,201.46 C648.308,239.521 664.467,273.799 689.585,303.718 C692.311,306.965 694.104,310.331 692.318,314.65 C687.806,319.848 684.917,320.257 678.98,316.537" fill="#6E4100"/>
    <path d="M607.058,1156.42 C607.061,1157.25 607.05,1158.08 607.07,1158.91 C607.333,1170.45 607.324,1170.41 596.369,1173.55 C557.131,1184.81 517.069,1187.91 476.465,1185.78 C448.197,1184.3 420.305,1180.27 392.69,1174.05 C388.012,1172.99 386.075,1171.23 387.052,1166.47 C387.379,1164.88 387.13,1163.16 387.144,1161.5 C387.341,1157.03 389.169,1156.3 393.623,1157.36 C444.086,1169.35 495.126,1172.2 546.688,1166.64 C566.056,1164.55 585.204,1161.38 604.103,1156.67 C605.05,1156.44 606.072,1156.5 607.058,1156.42" fill="#68B2FE"/>
    <path d="M504.078,1263.52 C504.078,1244.71 504.158,1225.9 504.005,1207.09 C503.977,1203.66 504.407,1202.28 508.448,1202.26 C521.416,1202.22 534.372,1201.39 547.229,1199.57 C550.831,1199.06 552.516,1199.37 552.118,1203.86 C549.096,1237.98 546.319,1272.12 543.466,1306.26 C543.008,1311.73 542.292,1317.19 542.191,1322.67 C542.132,1325.9 540.903,1326.42 538.031,1326.45 C528.198,1326.57 518.425,1325.55 508.62,1325.24 C505.527,1325.14 504.832,1323.82 504.851,1320.91 C504.974,1301.78 504.914,1282.65 504.914,1263.52 C504.636,1263.52 504.357,1263.52 504.078,1263.52" fill="#FEF8EA"/>
    <path d="M488.912,1263.36 C488.912,1282.32 488.795,1301.27 489.007,1320.22 C489.051,1324.16 487.91,1325.36 484.023,1325.43 C475.055,1325.59 466.114,1326.54 457.121,1326.46 C454.191,1326.43 453.242,1325.73 452.994,1322.64 C449.856,1283.53 446.548,1244.45 443.264,1205.36 C442.718,1198.86 442.705,1198.8 449.406,1199.66 C460.959,1201.12 472.578,1201.81 484.201,1202.12 C487.733,1202.21 488.152,1203.48 488.135,1206.46 C488.027,1225.43 488.08,1244.4 488.08,1263.36 C488.357,1263.36 488.634,1263.36 488.912,1263.36" fill="#FEF8EA"/>
    <path d="M505.078,1363.13 C505.078,1356.8 505.259,1350.46 505,1344.15 C504.876,1341.12 506.252,1341.06 508.513,1341.19 C518.151,1341.76 527.78,1342.75 537.447,1342.33 C540.122,1342.21 540.437,1343.31 540.228,1345.53 C539.618,1351.99 539.411,1358.5 538.539,1364.93 C537.861,1369.92 539.393,1373.42 543.143,1376.73 C552.651,1385.14 561.43,1394.26 567.398,1405.66 C572.037,1414.51 571.42,1420.05 565.516,1425.52 C561.473,1429.27 556.534,1429.98 551.515,1428.9 C529.579,1424.19 505.627,1408.76 506,1377.58 C506.057,1372.76 506.008,1367.94 506.008,1363.12 C505.698,1363.12 505.388,1363.12 505.078,1363.13" fill="#FEFEFE"/>
    <path d="M489.08,1363.85 C489.223,1376.43 490.287,1389.23 483.953,1400.88 C474.911,1417.51 460.007,1425.87 442.098,1429.05 C430.35,1431.13 420.457,1419.72 426.9,1407.34 C432.688,1396.21 440.691,1386.95 449.913,1378.77 C455.084,1374.18 457.983,1369.66 456.413,1362.4 C455.23,1356.93 455.535,1351.15 454.979,1345.53 C454.746,1343.16 455.29,1342.23 457.831,1342.34 C467.153,1342.73 476.44,1341.83 485.728,1341.24 C488.329,1341.07 489.214,1341.69 489.138,1344.4 C488.957,1350.88 489.08,1357.36 489.08,1363.85" fill="#FEFEFE"/>
    <path d="M496.614,586.715 C480.984,586.852 469.743,579.153 461.277,566.77 C452.86,554.459 448.656,540.498 446.165,525.973 C445.788,523.772 445.324,522.35 442.967,521.674 C439.177,520.588 438.249,517.595 439.183,514.17 C440.137,510.677 442.943,509.87 446.268,510.269 C463.815,512.375 481.427,512.98 499.074,512.293 C512.71,511.762 526.269,510.378 539.725,508.045 C544.708,507.18 548.119,509.802 547.84,514.743 C546.914,531.122 544.27,547.137 536.246,561.764 C527.673,577.391 514.919,586.481 496.614,586.715" fill="#6E4100"/>
    <path d="M593.837,405.859 C593.961,396.225 596.254,388.686 601.312,382.18 C602.739,380.344 602.815,379.021 602.138,376.879 C600.793,372.625 599.913,368.214 599.012,363.832 C598.24,360.08 599.36,357.105 603.455,356.296 C607.76,355.445 609.955,357.872 610.848,361.808 C611.178,363.265 611.473,364.731 611.734,366.203 C612.612,371.143 613.329,375.944 619.801,377.028 C621.81,377.365 623.687,379.52 625.274,381.179 C633.879,390.172 636.378,409.086 630.531,420.022 C623.691,432.818 607.042,433.314 598.552,420.925 C595.167,415.986 593.5,410.493 593.837,405.859" fill="#6E4100"/>
    <path d="M345.932,415.297 C346.408,405.425 350.999,396.493 359.413,389.619 C361.773,387.692 362.356,386.611 360.159,383.933 C355.338,378.057 353.739,370.879 353.617,363.41 C353.551,359.349 355.547,356.603 359.845,356.569 C363.828,356.538 365.885,358.961 366.074,362.864 C366.244,366.381 366.567,369.908 368.197,373.037 C370.876,378.179 373.966,381.921 381.108,381.533 C396.688,380.685 408.704,390.169 412.691,405.138 C414.071,410.317 412.02,414.469 407.385,415.881 C403.053,417.2 399.24,414.987 397.346,410.055 C393.387,399.741 388.328,396.217 379.28,397.469 C370.804,398.642 363.065,406.618 362.087,415.239 C361.938,416.557 362.036,417.903 361.913,419.226 C361.463,424.056 357.76,427.529 353.41,427.251 C348.981,426.969 346.126,423.772 345.937,418.864 C345.904,418.032 345.932,417.199 345.932,415.297" fill="#6E4100"/>
    <path d="M378.759,234.003 C386.085,234.289 391.812,237.43 395.783,243.62 C397.408,246.154 397.605,248.824 394.979,250.692 C392.345,252.566 389.811,252.064 387.552,249.493 C380.799,241.808 371.583,242.515 366.319,251.283 C364.416,254.452 362.07,255.662 358.986,254.097 C355.645,252.4 355.765,249.305 357.413,246.376 C362.08,238.084 369.502,234.432 378.759,234.003" fill="#6E4300"/>
    <path d="M488.931,415.342 C488.886,412.945 490.023,411.166 492.041,410.07 C494.066,408.969 496.353,408.869 498.109,410.413 C501.365,413.273 503.792,416.859 505.115,420.98 C505.789,423.078 505.177,425.315 503.235,426.77 C501.433,428.122 499.474,428.687 497.218,427.701 C494.449,426.491 488.905,418.354 488.931,415.342" fill="#6F4300"/>
    <path d="M572.874,772.618 C578.163,772.599 583.044,777.56 583.028,782.938 C583.011,788.452 578.4,793.022 572.8,793.076 C567.107,793.131 562.94,788.81 562.946,782.858 C562.952,777.043 567.222,772.639 572.874,772.618" fill="#FEFEFD"/>
    <path d="M416.634,792.75 C410.661,792.68 406.889,788.736 406.967,782.645 C407.04,776.913 411.607,772.398 417.071,772.654 C422.509,772.908 427.151,777.775 427.035,783.1 C426.911,788.761 422.537,792.819 416.634,792.75" fill="#FEFEFD"/>
    <path d="M457.939,523.617 C463.169,523.871 468.105,524.194 473.045,524.335 C492.027,524.875 510.961,524.368 529.793,521.654 C535.483,520.834 535.596,521.037 534.695,526.74 C532.92,537.968 530.204,548.886 524.084,558.654 C515.8,571.879 501.585,577.743 488.185,573.518 C480.496,571.094 475.101,565.834 470.818,559.268 C463.803,548.517 460.254,536.515 457.939,523.617" fill="#FEFEFE"/>
  </g>
</svg>
